<svg width="20" height="20" viewBox="0 0 20 20" fill="none" xmlns="http://www.w3.org/2000/svg">
<path d="M4.3234 15.3551C4.36804 15.3551 4.41269 15.3506 4.45733 15.3439L8.21179 14.6854C8.25643 14.6765 8.29885 14.6564 8.3301 14.6229L17.7921 5.16085C17.8128 5.1402 17.8293 5.11567 17.8405 5.08867C17.8517 5.06167 17.8574 5.03272 17.8574 5.00349C17.8574 4.97425 17.8517 4.94531 17.8405 4.9183C17.8293 4.8913 17.8128 4.86677 17.7921 4.84612L14.0823 1.13407C14.0399 1.09166 13.9841 1.06934 13.9238 1.06934C13.8636 1.06934 13.8078 1.09166 13.7654 1.13407L4.30331 10.5961C4.26983 10.6296 4.24974 10.6698 4.24081 10.7144L3.58233 14.4689C3.56061 14.5885 3.56837 14.7115 3.60493 14.8274C3.64149 14.9433 3.70575 15.0486 3.79215 15.1341C3.93947 15.2769 4.12474 15.3551 4.3234 15.3551ZM5.82786 11.4622L13.9238 3.36844L15.56 5.0046L7.46402 13.0984L5.47965 13.4488L5.82786 11.4622ZM18.214 17.2301H1.78545C1.39036 17.2301 1.07117 17.5492 1.07117 17.9443V18.7479C1.07117 18.8461 1.15152 18.9265 1.24974 18.9265H18.7497C18.848 18.9265 18.9283 18.8461 18.9283 18.7479V17.9443C18.9283 17.5492 18.6091 17.2301 18.214 17.2301Z" fill="#888888"/>
</svg>
