<svg width="50" height="50" viewBox="0 0 50 50" fill="none" xmlns="http://www.w3.org/2000/svg">
<path d="M25 30.2084C28.4584 30.2084 31.25 27.4167 31.25 23.9584V11.4584C31.25 8.00004 28.4584 5.20837 25 5.20837C21.5417 5.20837 18.75 8.00004 18.75 11.4584V23.9584C18.75 27.4167 21.5417 30.2084 25 30.2084ZM22.9167 11.4584C22.9167 10.3125 23.8542 9.37504 25 9.37504C26.1459 9.37504 27.0834 10.3125 27.0834 11.4584V23.9584C27.0834 25.1042 26.1459 26.0417 25 26.0417C23.8542 26.0417 22.9167 25.1042 22.9167 23.9584V11.4584ZM35.4167 23.9584C35.4167 29.7084 30.75 34.375 25 34.375C19.25 34.375 14.5834 29.7084 14.5834 23.9584H10.4167C10.4167 31.3125 15.8542 37.3542 22.9167 38.375V44.7917H27.0834V38.375C34.1459 37.3542 39.5834 31.3125 39.5834 23.9584H35.4167Z" fill="white"/>
</svg>
